<svg width="87" height="101" viewBox="0 0 87 101" fill="none" xmlns="http://www.w3.org/2000/svg">
<g clip-path="url(#clip0_4_50)">
<path d="M41.5884 0.710874L1.79245 23.7878C1.20288 24.0837 0.908094 24.6754 0.318525 25.2671C0.0784401 25.8261 -0.022724 26.4353 0.023739 27.0422V73.1961C0.0847992 73.8248 0.286322 74.4315 0.61331 74.9712C0.946899 75.6006 1.46013 76.1157 2.08723 76.4505L41.5884 99.5274C42.0986 99.9115 42.7192 100.119 43.3571 100.119C43.9949 100.119 44.6155 99.9115 45.1258 99.5274L84.6269 76.4505C85.254 76.1157 85.7672 75.6006 86.1008 74.9712C86.4278 74.4315 86.6293 73.8248 86.6904 73.1961V27.0718C86.6293 26.4431 86.4278 25.8364 86.1008 25.2967C85.7672 24.6673 85.254 24.1522 84.6269 23.8174L45.1258 0.740461C44.588 0.412282 43.9835 0.210025 43.3571 0.148743C42.733 0.200981 42.1286 0.393077 41.5884 0.710874Z" fill="url(#paint0_linear_4_50)"/>
<path d="M40.8917 55.884L40.8917 33.3066C40.8917 31.9232 39.7702 30.8017 38.3868 30.8017C37.0033 30.8017 35.8818 31.9232 35.8818 33.3066L35.8818 55.884C35.8818 57.2675 37.0033 58.389 38.3868 58.389C39.7702 58.389 40.8917 57.2675 40.8917 55.884Z" fill="white"/>
<path d="M60.9284 60.8969L25.865 60.8969C24.4799 60.8969 23.3571 62.0198 23.3571 63.4049C23.3571 64.79 24.4799 65.9128 25.865 65.9128L60.9284 65.9128C62.3134 65.9128 63.4363 64.79 63.4363 63.4049C63.4363 62.0198 62.3134 60.8969 60.9284 60.8969Z" fill="white"/>
<path d="M60.9313 55.8841L60.9313 28.2908C60.9313 26.9073 59.8098 25.7858 58.4264 25.7858C57.0429 25.7858 55.9214 26.9073 55.9214 28.2908L55.9214 55.8841C55.9214 57.2675 57.0429 58.389 58.4264 58.389C59.8098 58.389 60.9313 57.2675 60.9313 55.8841Z" fill="white"/>
<path d="M30.8719 55.884L30.8719 48.3543C30.8719 46.9708 29.7504 45.8493 28.367 45.8493C26.9835 45.8493 25.862 46.9708 25.862 48.3543L25.862 55.8841C25.862 57.2675 26.9835 58.389 28.367 58.389C29.7504 58.389 30.8719 57.2675 30.8719 55.884Z" fill="white"/>
<path d="M45.9016 38.3225V55.8841C45.9016 57.2675 47.0231 58.389 48.4066 58.389C49.79 58.389 50.9115 57.2675 50.9115 55.8841V38.3225C50.9115 36.9391 49.79 35.8176 48.4066 35.8176C47.0231 35.8176 45.9016 36.9391 45.9016 38.3225Z" fill="white"/>
</g>
<defs>
<linearGradient id="paint0_linear_4_50" x1="86.6904" y1="0.14874" x2="-2.4846" y2="97.8395" gradientUnits="userSpaceOnUse">
<stop stop-color="#792EE5"/>
<stop offset="1" stop-color="#428FF4"/>
</linearGradient>
<clipPath id="clip0_4_50">
<rect width="86.6667" height="100" fill="white" transform="translate(0.0237427 0.119171)"/>
</clipPath>
</defs>
</svg>
