<svg width="390" height="100" viewBox="0 0 390 100" fill="none" xmlns="http://www.w3.org/2000/svg">
<g clip-path="url(#clip0_402_94)">
<path d="M41.5646 0.591703L1.76872 23.6686C1.17915 23.9645 0.88437 24.5562 0.294801 25.1479C0.0547165 25.7069 -0.0464476 26.3161 1.54153e-05 26.9231V73.0769C0.0610756 73.7056 0.262599 74.3124 0.589587 74.8521C0.923176 75.4815 1.4364 75.9966 2.06351 76.3314L41.5646 99.4083C42.0749 99.7924 42.6955 100 43.3333 100C43.9712 100 44.5918 99.7924 45.1021 99.4083L84.6032 76.3314C85.2303 75.9966 85.7435 75.4815 86.0771 74.8521C86.4041 74.3124 86.6056 73.7056 86.6667 73.0769V26.9527C86.6056 26.324 86.4041 25.7172 86.0771 25.1775C85.7435 24.5481 85.2303 24.033 84.6032 23.6982L45.1021 0.62129C44.5643 0.293111 43.9597 0.0908541 43.3333 0.0295715C42.7093 0.0818102 42.1049 0.273906 41.5646 0.591703Z" fill="url(#paint0_linear_402_94)"/>
<path d="M40.868 55.7649L40.868 33.1875C40.868 31.804 39.7465 30.6825 38.3631 30.6825C36.9796 30.6825 35.8581 31.804 35.8581 33.1875L35.8581 55.7649C35.8581 57.1483 36.9796 58.2698 38.3631 58.2698C39.7465 58.2698 40.868 57.1483 40.868 55.7649Z" fill="white"/>
<path d="M60.9046 60.7778L25.8413 60.7778C24.4562 60.7778 23.3334 61.9006 23.3334 63.2857C23.3334 64.6708 24.4562 65.7936 25.8413 65.7936L60.9046 65.7936C62.2897 65.7936 63.4126 64.6708 63.4126 63.2857C63.4126 61.9006 62.2897 60.7778 60.9046 60.7778Z" fill="white"/>
<path d="M60.9076 55.7649L60.9076 28.1716C60.9076 26.7882 59.7861 25.6667 58.4026 25.6667C57.0192 25.6667 55.8977 26.7882 55.8977 28.1716L55.8977 55.7649C55.8977 57.1483 57.0192 58.2698 58.4026 58.2698C59.7861 58.2698 60.9076 57.1483 60.9076 55.7649Z" fill="white"/>
<path d="M30.8483 55.7649L30.8483 48.2351C30.8483 46.8517 29.7268 45.7302 28.3433 45.7302C26.9599 45.7302 25.8384 46.8517 25.8384 48.2351L25.8384 55.7649C25.8384 57.1483 26.9599 58.2698 28.3433 58.2698C29.7268 58.2698 30.8483 57.1483 30.8483 55.7649Z" fill="white"/>
<path d="M45.8779 38.2034V55.7649C45.8779 57.1483 46.9994 58.2698 48.3829 58.2698C49.7663 58.2698 50.8878 57.1483 50.8878 55.7649V38.2034C50.8878 36.8199 49.7663 35.6984 48.3829 35.6984C46.9994 35.6984 45.8779 36.8199 45.8779 38.2034Z" fill="white"/>
</g>
<path d="M106.567 16.9457V12.5281H129.777V16.9457H120.786V41.619H115.559V16.9457H106.567ZM139.378 42.0452C137.247 42.0452 135.4 41.5764 133.838 40.6389C132.275 39.7014 131.063 38.3899 130.201 36.7042C129.349 35.0186 128.923 33.0489 128.923 30.7952C128.923 28.5414 129.349 26.5669 130.201 24.8719C131.063 23.1768 132.275 21.8605 133.838 20.923C135.4 19.9855 137.247 19.5167 139.378 19.5167C141.508 19.5167 143.355 19.9855 144.917 20.923C146.48 21.8605 147.687 23.1768 148.54 24.8719C149.401 26.5669 149.832 28.5414 149.832 30.7952C149.832 33.0489 149.401 35.0186 148.54 36.7042C147.687 38.3899 146.48 39.7014 144.917 40.6389C143.355 41.5764 141.508 42.0452 139.378 42.0452ZM139.406 37.9258C140.561 37.9258 141.527 37.6086 142.304 36.9741C143.08 36.3302 143.658 35.4685 144.037 34.3889C144.425 33.3094 144.619 32.1067 144.619 30.7809C144.619 29.4457 144.425 28.2383 144.037 27.1588C143.658 26.0698 143.08 25.2033 142.304 24.5594C141.527 23.9154 140.561 23.5934 139.406 23.5934C138.222 23.5934 137.237 23.9154 136.451 24.5594C135.675 25.2033 135.093 26.0698 134.704 27.1588C134.326 28.2383 134.136 29.4457 134.136 30.7809C134.136 32.1067 134.326 33.3094 134.704 34.3889C135.093 35.4685 135.675 36.3302 136.451 36.9741C137.237 37.6086 138.222 37.9258 139.406 37.9258ZM153.196 41.619V19.8008H158.182V23.4372H158.41C158.807 22.1777 159.489 21.2071 160.455 20.5253C161.43 19.834 162.543 19.4883 163.793 19.4883C164.077 19.4883 164.394 19.5025 164.745 19.5309C165.105 19.5499 165.403 19.583 165.64 19.6304V24.3605C165.422 24.2847 165.076 24.2184 164.603 24.1616C164.139 24.0953 163.689 24.0622 163.253 24.0622C162.316 24.0622 161.473 24.2658 160.725 24.673C159.986 25.0707 159.404 25.6247 158.978 26.3349C158.552 27.0452 158.339 27.8643 158.339 28.7923V41.619H153.196ZM176.674 42.0452C174.496 42.0452 172.626 41.5669 171.064 40.6105C169.511 39.6541 168.313 38.333 167.47 36.6474C166.637 34.9524 166.22 33.0016 166.22 30.7952C166.22 28.5792 166.646 26.6238 167.498 24.9287C168.351 23.2241 169.553 21.8984 171.106 20.9514C172.669 19.995 174.515 19.5167 176.646 19.5167C178.417 19.5167 179.984 19.8435 181.348 20.4969C182.721 21.1408 183.815 22.0546 184.629 23.2383C185.443 24.4126 185.907 25.7857 186.021 27.3577H181.106C180.907 26.3065 180.434 25.4306 179.686 24.7298C178.947 24.0196 177.958 23.6645 176.717 23.6645C175.666 23.6645 174.743 23.9486 173.947 24.5167C173.152 25.0755 172.531 25.8804 172.086 26.9315C171.651 27.9827 171.433 29.2421 171.433 30.7099C171.433 32.1967 171.651 33.4751 172.086 34.5452C172.522 35.6058 173.133 36.4249 173.919 37.0025C174.714 37.5707 175.647 37.8548 176.717 37.8548C177.475 37.8548 178.152 37.7128 178.748 37.4287C179.354 37.1351 179.861 36.7137 180.268 36.1645C180.675 35.6152 180.955 34.9476 181.106 34.1616H186.021C185.898 35.7052 185.443 37.0736 184.657 38.2667C183.871 39.4505 182.801 40.3785 181.447 41.0508C180.093 41.7137 178.502 42.0452 176.674 42.0452ZM194.385 28.8349V41.619H189.243V12.5281H194.272V23.5082H194.527C195.039 22.2772 195.83 21.3065 196.9 20.5963C197.979 19.8766 199.352 19.5167 201.019 19.5167C202.534 19.5167 203.855 19.834 204.982 20.4684C206.109 21.1029 206.98 22.0309 207.596 23.2525C208.221 24.4741 208.533 25.9656 208.533 27.727V41.619H203.391V28.5224C203.391 27.0546 203.012 25.9135 202.255 25.0991C201.507 24.2753 200.455 23.8633 199.101 23.8633C198.192 23.8633 197.378 24.0622 196.658 24.4599C195.948 24.8482 195.389 25.4116 194.982 26.1503C194.584 26.8889 194.385 27.7838 194.385 28.8349ZM213.002 12.5281H219.451L228.087 33.6077H228.428L237.064 12.5281H243.513V41.619H238.456V21.6332H238.187L230.147 41.5338H226.368L218.329 21.5906H218.059V41.619H213.002V12.5281ZM257.684 42.0452C255.496 42.0452 253.607 41.5906 252.016 40.6815C250.435 39.763 249.218 38.4656 248.366 36.7895C247.513 35.1039 247.087 33.12 247.087 30.8378C247.087 28.5935 247.513 26.6238 248.366 24.9287C249.227 23.2241 250.43 21.8984 251.973 20.9514C253.517 19.995 255.33 19.5167 257.414 19.5167C258.759 19.5167 260.027 19.7345 261.221 20.1702C262.423 20.5963 263.484 21.2592 264.402 22.1588C265.33 23.0584 266.06 24.2042 266.59 25.5963C267.12 26.9789 267.385 28.6266 267.385 30.5395V32.1162H249.502V28.6503H262.456C262.447 27.6654 262.234 26.7895 261.817 26.0224C261.401 25.2459 260.818 24.6351 260.07 24.19C259.331 23.745 258.47 23.5224 257.485 23.5224C256.434 23.5224 255.51 23.7781 254.715 24.2895C253.92 24.7914 253.299 25.4542 252.854 26.2781C252.419 27.0925 252.196 27.9874 252.187 28.9628V31.9883C252.187 33.2573 252.419 34.3463 252.883 35.2554C253.347 36.155 253.995 36.8463 254.829 37.3292C255.662 37.8027 256.637 38.0395 257.755 38.0395C258.503 38.0395 259.18 37.9353 259.786 37.727C260.392 37.5092 260.918 37.1919 261.363 36.7753C261.808 36.3586 262.144 35.8425 262.371 35.227L267.172 35.7667C266.869 37.0357 266.292 38.1436 265.439 39.0906C264.597 40.0281 263.517 40.7573 262.201 41.2781C260.884 41.7895 259.379 42.0452 257.684 42.0452ZM281.63 19.8008V23.7781H269.088V19.8008H281.63ZM272.184 14.5736H277.326V35.0565C277.326 35.7478 277.431 36.2781 277.639 36.6474C277.857 37.0073 278.141 37.2535 278.491 37.3861C278.842 37.5186 279.23 37.5849 279.656 37.5849C279.978 37.5849 280.272 37.5613 280.537 37.5139C280.811 37.4666 281.02 37.4239 281.162 37.3861L282.028 41.406C281.754 41.5006 281.361 41.6048 280.849 41.7185C280.347 41.8321 279.732 41.8984 279.003 41.9173C277.715 41.9552 276.555 41.7611 275.522 41.3349C274.49 40.8993 273.671 40.227 273.065 39.3179C272.469 38.4088 272.175 37.2724 272.184 35.9088V14.5736ZM284.931 41.619V19.8008H289.917V23.4372H290.144C290.542 22.1777 291.223 21.2071 292.189 20.5253C293.165 19.834 294.277 19.4883 295.527 19.4883C295.812 19.4883 296.129 19.5025 296.479 19.5309C296.839 19.5499 297.137 19.583 297.374 19.6304V24.3605C297.156 24.2847 296.811 24.2184 296.337 24.1616C295.873 24.0953 295.423 24.0622 294.988 24.0622C294.05 24.0622 293.207 24.2658 292.459 24.673C291.721 25.0707 291.138 25.6247 290.712 26.3349C290.286 27.0452 290.073 27.8643 290.073 28.7923V41.619H284.931ZM299.79 41.619V19.8008H304.932V41.619H299.79ZM302.375 16.7042C301.561 16.7042 300.86 16.4344 300.273 15.8946C299.686 15.3453 299.393 14.6872 299.393 13.9202C299.393 13.1436 299.686 12.4855 300.273 11.9457C300.86 11.3965 301.561 11.1219 302.375 11.1219C303.199 11.1219 303.9 11.3965 304.478 11.9457C305.065 12.4855 305.358 13.1436 305.358 13.9202C305.358 14.6872 305.065 15.3453 304.478 15.8946C303.9 16.4344 303.199 16.7042 302.375 16.7042ZM318.737 42.0452C316.559 42.0452 314.689 41.5669 313.126 40.6105C311.573 39.6541 310.375 38.333 309.532 36.6474C308.699 34.9524 308.282 33.0016 308.282 30.7952C308.282 28.5792 308.709 26.6238 309.561 24.9287C310.413 23.2241 311.616 21.8984 313.169 20.9514C314.731 19.995 316.578 19.5167 318.709 19.5167C320.479 19.5167 322.047 19.8435 323.41 20.4969C324.783 21.1408 325.877 22.0546 326.692 23.2383C327.506 24.4126 327.97 25.7857 328.084 27.3577H323.169C322.97 26.3065 322.496 25.4306 321.748 24.7298C321.01 24.0196 320.02 23.6645 318.78 23.6645C317.728 23.6645 316.805 23.9486 316.01 24.5167C315.214 25.0755 314.594 25.8804 314.149 26.9315C313.713 27.9827 313.495 29.2421 313.495 30.7099C313.495 32.1967 313.713 33.4751 314.149 34.5452C314.585 35.6058 315.195 36.4249 315.981 37.0025C316.777 37.5707 317.71 37.8548 318.78 37.8548C319.537 37.8548 320.214 37.7128 320.811 37.4287C321.417 37.1351 321.924 36.7137 322.331 36.1645C322.738 35.6152 323.017 34.9476 323.169 34.1616H328.084C327.96 35.7052 327.506 37.0736 326.72 38.2667C325.934 39.4505 324.864 40.3785 323.51 41.0508C322.156 41.7137 320.565 42.0452 318.737 42.0452ZM348.55 25.5679L343.863 26.0792C343.73 25.6058 343.498 25.1607 343.167 24.744C342.845 24.3274 342.409 23.9912 341.86 23.7355C341.311 23.4798 340.638 23.352 339.843 23.352C338.773 23.352 337.873 23.584 337.144 24.048C336.424 24.512 336.069 25.1133 336.079 25.852C336.069 26.4864 336.301 27.0025 336.775 27.4003C337.258 27.798 338.053 28.1247 339.161 28.3804L342.883 29.1758C344.947 29.6209 346.481 30.3264 347.485 31.2923C348.498 32.2582 349.009 33.5224 349.019 35.0849C349.009 36.458 348.607 37.6702 347.812 38.7213C347.026 39.763 345.932 40.5774 344.53 41.1645C343.129 41.7516 341.519 42.0452 339.701 42.0452C337.03 42.0452 334.881 41.4864 333.252 40.369C331.623 39.2421 330.652 37.6749 330.34 35.6673L335.354 35.1844C335.581 36.1692 336.064 36.9126 336.803 37.4145C337.542 37.9164 338.503 38.1673 339.687 38.1673C340.908 38.1673 341.888 37.9164 342.627 37.4145C343.375 36.9126 343.749 36.2923 343.749 35.5537C343.749 34.9287 343.508 34.4126 343.025 34.0054C342.551 33.5982 341.812 33.2857 340.809 33.0679L337.087 32.2866C334.994 31.851 333.446 31.1171 332.442 30.0849C331.438 29.0433 330.941 27.727 330.951 26.1361C330.941 24.7914 331.306 23.6266 332.045 22.6417C332.793 21.6474 333.83 20.8804 335.155 20.3406C336.491 19.7914 338.029 19.5167 339.772 19.5167C342.329 19.5167 344.341 20.0613 345.809 21.1503C347.286 22.2393 348.2 23.7118 348.55 25.5679Z" fill="#1C1C1C"/>
<path d="M123.159 68.3333H121.045C120.92 67.7254 120.702 67.1913 120.389 66.731C120.082 66.2708 119.707 65.8844 119.264 65.5719C118.827 65.2538 118.341 65.0151 117.807 64.856C117.273 64.6969 116.716 64.6174 116.136 64.6174C115.08 64.6174 114.122 64.8844 113.264 65.4185C112.412 65.9526 111.733 66.7396 111.227 67.7793C110.727 68.8191 110.477 70.0947 110.477 71.606C110.477 73.1174 110.727 74.393 111.227 75.4327C111.733 76.4725 112.412 77.2594 113.264 77.7935C114.122 78.3276 115.08 78.5947 116.136 78.5947C116.716 78.5947 117.273 78.5151 117.807 78.356C118.341 78.1969 118.827 77.9612 119.264 77.6487C119.707 77.3305 120.082 76.9413 120.389 76.481C120.702 76.0151 120.92 75.481 121.045 74.8788H123.159C123 75.7708 122.71 76.5691 122.29 77.2737C121.869 77.9782 121.347 78.5776 120.722 79.0719C120.097 79.5606 119.395 79.9327 118.616 80.1884C117.844 80.4441 117.017 80.5719 116.136 80.5719C114.648 80.5719 113.324 80.2083 112.165 79.481C111.006 78.7538 110.094 77.7197 109.429 76.3788C108.764 75.0379 108.432 73.4469 108.432 71.606C108.432 69.7651 108.764 68.1742 109.429 66.8333C110.094 65.4924 111.006 64.4583 112.165 63.731C113.324 63.0038 114.648 62.6401 116.136 62.6401C117.017 62.6401 117.844 62.768 118.616 63.0237C119.395 63.2793 120.097 63.6543 120.722 64.1487C121.347 64.6373 121.869 65.2339 122.29 65.9384C122.71 66.6373 123 67.4356 123.159 68.3333ZM126.302 80.3333V67.2424H128.245V69.2197H128.381C128.62 68.5719 129.052 68.0464 129.677 67.643C130.302 67.2396 131.006 67.0379 131.79 67.0379C131.938 67.0379 132.123 67.0407 132.344 67.0464C132.566 67.0521 132.734 67.0606 132.847 67.0719V69.1174C132.779 69.1004 132.623 69.0748 132.379 69.0407C132.14 69.0009 131.887 68.981 131.62 68.981C130.984 68.981 130.415 69.1146 129.915 69.3816C129.421 69.643 129.029 70.0066 128.739 70.4725C128.455 70.9327 128.313 71.4583 128.313 72.0492V80.3333H126.302ZM140.322 80.606C139.06 80.606 137.972 80.3276 137.058 79.7708C136.148 79.2083 135.447 78.4242 134.952 77.4185C134.464 76.4072 134.219 75.231 134.219 73.8901C134.219 72.5492 134.464 71.3674 134.952 70.3447C135.447 69.3163 136.134 68.5151 137.015 67.9413C137.901 67.3617 138.935 67.0719 140.117 67.0719C140.799 67.0719 141.472 67.1856 142.137 67.4129C142.802 67.6401 143.407 68.0094 143.952 68.5208C144.498 69.0265 144.933 69.6969 145.256 70.5322C145.58 71.3674 145.742 72.3958 145.742 73.6174V74.4697H135.651V72.731H143.697C143.697 71.9924 143.549 71.3333 143.254 70.7538C142.964 70.1742 142.549 69.7168 142.009 69.3816C141.475 69.0464 140.844 68.8788 140.117 68.8788C139.316 68.8788 138.623 69.0776 138.038 69.4754C137.458 69.8674 137.012 70.3788 136.7 71.0094C136.387 71.6401 136.231 72.3163 136.231 73.0379V74.1969C136.231 75.1856 136.401 76.0237 136.742 76.7112C137.089 77.393 137.569 77.9129 138.183 78.2708C138.796 78.6231 139.509 78.7992 140.322 78.7992C140.85 78.7992 141.327 78.7254 141.754 78.5776C142.185 78.4242 142.558 78.1969 142.87 77.8958C143.183 77.589 143.424 77.2083 143.594 76.7538L145.538 77.2992C145.333 77.9583 144.989 78.5379 144.506 79.0379C144.023 79.5322 143.427 79.9185 142.717 80.1969C142.006 80.4697 141.208 80.606 140.322 80.606ZM152.654 80.6401C151.825 80.6401 151.072 80.4839 150.396 80.1714C149.719 79.8532 149.183 79.3958 148.785 78.7992C148.387 78.1969 148.188 77.4697 148.188 76.6174C148.188 75.8674 148.336 75.2594 148.631 74.7935C148.927 74.3219 149.322 73.9526 149.816 73.6856C150.31 73.4185 150.856 73.2197 151.452 73.089C152.055 72.9526 152.66 72.8447 153.268 72.7651C154.063 72.6629 154.708 72.5862 155.202 72.535C155.702 72.4782 156.066 72.3844 156.293 72.2538C156.526 72.1231 156.643 71.8958 156.643 71.5719V71.5038C156.643 70.6629 156.413 70.0094 155.952 69.5435C155.498 69.0776 154.808 68.8447 153.881 68.8447C152.921 68.8447 152.168 69.0549 151.623 69.4754C151.077 69.8958 150.694 70.3447 150.472 70.8219L148.563 70.1401C148.904 69.3447 149.359 68.7254 149.927 68.2822C150.501 67.8333 151.126 67.5208 151.802 67.3447C152.484 67.1629 153.154 67.0719 153.813 67.0719C154.234 67.0719 154.717 67.1231 155.262 67.2254C155.813 67.3219 156.344 67.5237 156.856 67.8305C157.373 68.1373 157.802 68.6004 158.143 69.2197C158.484 69.839 158.654 70.6685 158.654 71.7083V80.3333H156.643V78.5606H156.54C156.404 78.8447 156.177 79.1487 155.859 79.4725C155.54 79.7964 155.117 80.0719 154.589 80.2992C154.06 80.5265 153.415 80.6401 152.654 80.6401ZM152.961 78.8333C153.756 78.8333 154.427 78.6771 154.972 78.3646C155.523 78.0521 155.938 77.6487 156.217 77.1543C156.501 76.66 156.643 76.1401 156.643 75.5947V73.7538C156.558 73.856 156.37 73.9498 156.08 74.035C155.796 74.1146 155.467 74.1856 155.092 74.2481C154.722 74.3049 154.362 74.356 154.009 74.4015C153.663 74.4413 153.381 74.4754 153.165 74.5038C152.643 74.5719 152.154 74.6827 151.7 74.8362C151.251 74.9839 150.887 75.2083 150.609 75.5094C150.336 75.8049 150.2 76.2083 150.2 76.7197C150.2 77.4185 150.458 77.9469 150.975 78.3049C151.498 78.6572 152.16 78.8333 152.961 78.8333ZM168.018 67.2424V68.9469H161.234V67.2424H168.018ZM163.212 64.106H165.223V76.5833C165.223 77.1515 165.305 77.5776 165.47 77.8617C165.641 78.1401 165.857 78.3276 166.118 78.4242C166.385 78.5151 166.666 78.5606 166.962 78.5606C167.183 78.5606 167.365 78.5492 167.507 78.5265C167.649 78.4981 167.763 78.4754 167.848 78.4583L168.257 80.2651C168.121 80.3163 167.93 80.3674 167.686 80.4185C167.442 80.4754 167.132 80.5038 166.757 80.5038C166.189 80.5038 165.632 80.3816 165.087 80.1373C164.547 79.893 164.098 79.5208 163.74 79.0208C163.388 78.5208 163.212 77.8901 163.212 77.1288V64.106ZM176.392 80.606C175.131 80.606 174.043 80.3276 173.128 79.7708C172.219 79.2083 171.517 78.4242 171.023 77.4185C170.534 76.4072 170.29 75.231 170.29 73.8901C170.29 72.5492 170.534 71.3674 171.023 70.3447C171.517 69.3163 172.205 68.5151 173.085 67.9413C173.972 67.3617 175.006 67.0719 176.188 67.0719C176.869 67.0719 177.543 67.1856 178.207 67.4129C178.872 67.6401 179.477 68.0094 180.023 68.5208C180.568 69.0265 181.003 69.6969 181.327 70.5322C181.651 71.3674 181.812 72.3958 181.812 73.6174V74.4697H171.722V72.731H179.767C179.767 71.9924 179.619 71.3333 179.324 70.7538C179.034 70.1742 178.619 69.7168 178.08 69.3816C177.545 69.0464 176.915 68.8788 176.188 68.8788C175.386 68.8788 174.693 69.0776 174.108 69.4754C173.528 69.8674 173.082 70.3788 172.77 71.0094C172.457 71.6401 172.301 72.3163 172.301 73.0379V74.1969C172.301 75.1856 172.472 76.0237 172.812 76.7112C173.159 77.393 173.639 77.9129 174.253 78.2708C174.866 78.6231 175.58 78.7992 176.392 78.7992C176.92 78.7992 177.398 78.7254 177.824 78.5776C178.256 78.4242 178.628 78.1969 178.94 77.8958C179.253 77.589 179.494 77.2083 179.665 76.7538L181.608 77.2992C181.403 77.9583 181.06 78.5379 180.577 79.0379C180.094 79.5322 179.497 79.9185 178.787 80.1969C178.077 80.4697 177.278 80.606 176.392 80.606ZM189.815 80.606C188.724 80.606 187.761 80.3305 186.926 79.7793C186.091 79.2225 185.438 78.4384 184.966 77.4271C184.494 76.41 184.259 75.2083 184.259 73.8219C184.259 72.4469 184.494 71.2538 184.966 70.2424C185.438 69.231 186.094 68.4498 186.935 67.8987C187.776 67.3475 188.747 67.0719 189.849 67.0719C190.702 67.0719 191.375 67.214 191.869 67.4981C192.369 67.7765 192.75 68.0947 193.011 68.4526C193.278 68.8049 193.486 69.0947 193.634 69.3219H193.804V62.8788H195.815V80.3333H193.872V78.3219H193.634C193.486 78.5606 193.276 78.8617 193.003 79.2254C192.73 79.5833 192.341 79.9043 191.835 80.1884C191.33 80.4668 190.656 80.606 189.815 80.606ZM190.088 78.7992C190.895 78.7992 191.577 78.589 192.134 78.1685C192.69 77.7424 193.114 77.1543 193.403 76.4043C193.693 75.6487 193.838 74.7765 193.838 73.7879C193.838 72.8106 193.696 71.9555 193.412 71.2225C193.128 70.4839 192.707 69.91 192.151 69.5009C191.594 69.0862 190.906 68.8788 190.088 68.8788C189.236 68.8788 188.526 69.0975 187.957 69.535C187.395 69.9668 186.972 70.5549 186.688 71.2992C186.409 72.0379 186.27 72.8674 186.27 73.7879C186.27 74.7197 186.412 75.5663 186.696 76.3276C186.986 77.0833 187.412 77.6856 187.974 78.1344C188.543 78.5776 189.247 78.7992 190.088 78.7992ZM206.801 80.3333V62.8788H208.812V69.3219H208.983C209.131 69.0947 209.335 68.8049 209.597 68.4526C209.864 68.0947 210.244 67.7765 210.739 67.4981C211.239 67.214 211.915 67.0719 212.767 67.0719C213.869 67.0719 214.841 67.3475 215.682 67.8987C216.523 68.4498 217.179 69.231 217.651 70.2424C218.122 71.2538 218.358 72.4469 218.358 73.8219C218.358 75.2083 218.122 76.41 217.651 77.4271C217.179 78.4384 216.526 79.2225 215.69 79.7793C214.855 80.3305 213.892 80.606 212.801 80.606C211.96 80.606 211.287 80.4668 210.781 80.1884C210.276 79.9043 209.886 79.5833 209.614 79.2254C209.341 78.8617 209.131 78.5606 208.983 78.3219H208.744V80.3333H206.801ZM208.778 73.7879C208.778 74.7765 208.923 75.6487 209.213 76.4043C209.503 77.1543 209.926 77.7424 210.483 78.1685C211.04 78.589 211.722 78.7992 212.528 78.7992C213.369 78.7992 214.071 78.5776 214.634 78.1344C215.202 77.6856 215.628 77.0833 215.912 76.3276C216.202 75.5663 216.347 74.7197 216.347 73.7879C216.347 72.8674 216.205 72.0379 215.92 71.2992C215.642 70.5549 215.219 69.9668 214.651 69.535C214.088 69.0975 213.381 68.8788 212.528 68.8788C211.71 68.8788 211.023 69.0862 210.466 69.5009C209.909 69.91 209.489 70.4839 209.205 71.2225C208.92 71.9555 208.778 72.8106 208.778 73.7879ZM222.261 85.2424C221.92 85.2424 221.616 85.214 221.349 85.1572C221.082 85.106 220.898 85.0549 220.795 85.0038L221.307 83.231C221.795 83.356 222.227 83.4015 222.602 83.3674C222.977 83.3333 223.31 83.1657 223.599 82.8646C223.895 82.5691 224.165 82.089 224.409 81.4242L224.784 80.4015L219.943 67.2424H222.125L225.739 77.6742H225.875L229.489 67.2424H231.67L226.114 82.2424C225.864 82.9185 225.554 83.4782 225.185 83.9214C224.815 84.3702 224.386 84.7026 223.898 84.9185C223.415 85.1344 222.869 85.2424 222.261 85.2424ZM241.348 80.3333V62.8788H243.462V78.4583H251.575V80.3333H241.348ZM254.575 80.3333V67.2424H256.587V80.3333H254.575ZM255.598 65.0606C255.206 65.0606 254.868 64.9271 254.584 64.66C254.305 64.393 254.166 64.0719 254.166 63.6969C254.166 63.3219 254.305 63.0009 254.584 62.7339C254.868 62.4668 255.206 62.3333 255.598 62.3333C255.99 62.3333 256.325 62.4668 256.604 62.7339C256.888 63.0009 257.03 63.3219 257.03 63.6969C257.03 64.0719 256.888 64.393 256.604 64.66C256.325 64.9271 255.99 65.0606 255.598 65.0606ZM265.555 85.5151C264.583 85.5151 263.748 85.3901 263.049 85.1401C262.35 84.8958 261.768 84.5719 261.302 84.1685C260.842 83.7708 260.475 83.3447 260.202 82.8901L261.805 81.7651C261.987 82.0038 262.217 82.2765 262.495 82.5833C262.773 82.8958 263.154 83.1657 263.637 83.393C264.126 83.6259 264.765 83.7424 265.555 83.7424C266.612 83.7424 267.484 83.4867 268.171 82.9754C268.859 82.464 269.202 81.6629 269.202 80.5719V77.9129H269.032C268.884 78.1515 268.674 78.4469 268.401 78.7992C268.134 79.1458 267.748 79.4555 267.242 79.7282C266.742 79.9952 266.066 80.1288 265.214 80.1288C264.157 80.1288 263.208 79.8788 262.367 79.3788C261.532 78.8788 260.87 78.1515 260.381 77.1969C259.898 76.2424 259.657 75.0833 259.657 73.7197C259.657 72.3788 259.893 71.2112 260.364 70.2168C260.836 69.2168 261.492 68.4441 262.333 67.8987C263.174 67.3475 264.146 67.0719 265.248 67.0719C266.1 67.0719 266.776 67.214 267.276 67.4981C267.782 67.7765 268.168 68.0947 268.435 68.4526C268.708 68.8049 268.918 69.0947 269.066 69.3219H269.271V67.2424H271.214V80.7083C271.214 81.8333 270.958 82.7481 270.447 83.4526C269.941 84.1629 269.259 84.6827 268.401 85.0123C267.549 85.3475 266.6 85.5151 265.555 85.5151ZM265.487 78.3219C266.293 78.3219 266.975 78.1373 267.532 77.768C268.089 77.3987 268.512 76.8674 268.802 76.1742C269.092 75.481 269.237 74.6515 269.237 73.6856C269.237 72.7424 269.094 71.91 268.81 71.1884C268.526 70.4668 268.106 69.9015 267.549 69.4924C266.992 69.0833 266.305 68.8788 265.487 68.8788C264.634 68.8788 263.924 69.0947 263.356 69.5265C262.793 69.9583 262.37 70.5379 262.086 71.2651C261.808 71.9924 261.668 72.7992 261.668 73.6856C261.668 74.5947 261.81 75.3987 262.094 76.0975C262.384 76.7907 262.81 77.3362 263.373 77.7339C263.941 78.1259 264.646 78.3219 265.487 78.3219ZM276.907 72.4583V80.3333H274.896V62.8788H276.907V69.2879H277.077C277.384 68.6117 277.844 68.0748 278.458 67.6771C279.077 67.2737 279.901 67.0719 280.93 67.0719C281.822 67.0719 282.603 67.2509 283.273 67.6089C283.944 67.9612 284.464 68.5038 284.833 69.2367C285.208 69.964 285.396 70.8901 285.396 72.0151V80.3333H283.384V72.1515C283.384 71.1117 283.114 70.3077 282.575 69.7396C282.04 69.1657 281.299 68.8788 280.35 68.8788C279.691 68.8788 279.1 69.018 278.577 69.2964C278.06 69.5748 277.651 69.981 277.35 70.5151C277.055 71.0492 276.907 71.6969 276.907 72.4583ZM294.768 67.2424V68.9469H287.984V67.2424H294.768ZM289.962 64.106H291.973V76.5833C291.973 77.1515 292.055 77.5776 292.22 77.8617C292.391 78.1401 292.607 78.3276 292.868 78.4242C293.135 78.5151 293.416 78.5606 293.712 78.5606C293.933 78.5606 294.115 78.5492 294.257 78.5265C294.399 78.4981 294.513 78.4754 294.598 78.4583L295.007 80.2651C294.871 80.3163 294.68 80.3674 294.436 80.4185C294.192 80.4754 293.882 80.5038 293.507 80.5038C292.939 80.5038 292.382 80.3816 291.837 80.1373C291.297 79.893 290.848 79.5208 290.49 79.0208C290.138 78.5208 289.962 77.8901 289.962 77.1288V64.106ZM299.805 72.4583V80.3333H297.794V67.2424H299.737V69.2879H299.908C300.214 68.6231 300.68 68.089 301.305 67.6856C301.93 67.2765 302.737 67.0719 303.726 67.0719C304.612 67.0719 305.388 67.2538 306.053 67.6174C306.717 67.9754 307.234 68.5208 307.604 69.2538C307.973 69.981 308.158 70.9015 308.158 72.0151V80.3333H306.146V72.1515C306.146 71.1231 305.879 70.3219 305.345 69.7481C304.811 69.1685 304.078 68.8788 303.146 68.8788C302.504 68.8788 301.93 69.018 301.425 69.2964C300.925 69.5748 300.53 69.981 300.24 70.5151C299.95 71.0492 299.805 71.6969 299.805 72.4583ZM311.833 80.3333V67.2424H313.844V80.3333H311.833ZM312.856 65.0606C312.464 65.0606 312.126 64.9271 311.842 64.66C311.563 64.393 311.424 64.0719 311.424 63.6969C311.424 63.3219 311.563 63.0009 311.842 62.7339C312.126 62.4668 312.464 62.3333 312.856 62.3333C313.248 62.3333 313.583 62.4668 313.862 62.7339C314.146 63.0009 314.288 63.3219 314.288 63.6969C314.288 64.0719 314.146 64.393 313.862 64.66C313.583 64.9271 313.248 65.0606 312.856 65.0606ZM319.54 72.4583V80.3333H317.528V67.2424H319.472V69.2879H319.642C319.949 68.6231 320.415 68.089 321.04 67.6856C321.665 67.2765 322.472 67.0719 323.46 67.0719C324.347 67.0719 325.122 67.2538 325.787 67.6174C326.452 67.9754 326.969 68.5208 327.338 69.2538C327.707 69.981 327.892 70.9015 327.892 72.0151V80.3333H325.881V72.1515C325.881 71.1231 325.614 70.3219 325.08 69.7481C324.545 69.1685 323.813 68.8788 322.881 68.8788C322.239 68.8788 321.665 69.018 321.159 69.2964C320.659 69.5748 320.264 69.981 319.974 70.5151C319.685 71.0492 319.54 71.6969 319.54 72.4583ZM336.852 85.5151C335.88 85.5151 335.045 85.3901 334.346 85.1401C333.647 84.8958 333.065 84.5719 332.599 84.1685C332.138 83.7708 331.772 83.3447 331.499 82.8901L333.102 81.7651C333.283 82.0038 333.513 82.2765 333.792 82.5833C334.07 82.8958 334.451 83.1657 334.934 83.393C335.423 83.6259 336.062 83.7424 336.852 83.7424C337.908 83.7424 338.781 83.4867 339.468 82.9754C340.156 82.464 340.499 81.6629 340.499 80.5719V77.9129H340.329C340.181 78.1515 339.971 78.4469 339.698 78.7992C339.431 79.1458 339.045 79.4555 338.539 79.7282C338.039 79.9952 337.363 80.1288 336.511 80.1288C335.454 80.1288 334.505 79.8788 333.664 79.3788C332.829 78.8788 332.167 78.1515 331.678 77.1969C331.195 76.2424 330.954 75.0833 330.954 73.7197C330.954 72.3788 331.19 71.2112 331.661 70.2168C332.133 69.2168 332.789 68.4441 333.63 67.8987C334.471 67.3475 335.442 67.0719 336.545 67.0719C337.397 67.0719 338.073 67.214 338.573 67.4981C339.079 67.7765 339.465 68.0947 339.732 68.4526C340.005 68.8049 340.215 69.0947 340.363 69.3219H340.567V67.2424H342.511V80.7083C342.511 81.8333 342.255 82.7481 341.744 83.4526C341.238 84.1629 340.556 84.6827 339.698 85.0123C338.846 85.3475 337.897 85.5151 336.852 85.5151ZM336.783 78.3219C337.59 78.3219 338.272 78.1373 338.829 77.768C339.386 77.3987 339.809 76.8674 340.099 76.1742C340.388 75.481 340.533 74.6515 340.533 73.6856C340.533 72.7424 340.391 71.91 340.107 71.1884C339.823 70.4668 339.403 69.9015 338.846 69.4924C338.289 69.0833 337.602 68.8788 336.783 68.8788C335.931 68.8788 335.221 69.0947 334.653 69.5265C334.09 69.9583 333.667 70.5379 333.383 71.2651C333.104 71.9924 332.965 72.7992 332.965 73.6856C332.965 74.5947 333.107 75.3987 333.391 76.0975C333.681 76.7907 334.107 77.3362 334.67 77.7339C335.238 78.1259 335.942 78.3219 336.783 78.3219ZM353.931 80.3333H351.715L358.124 62.8788H360.306L366.715 80.3333H364.499L359.283 65.6401H359.147L353.931 80.3333ZM354.749 73.5151H363.681V75.3901H354.749V73.5151ZM371.548 62.8788V80.3333H369.434V62.8788H371.548Z" fill="#4F4F4F"/>
<defs>
<linearGradient id="paint0_linear_402_94" x1="62.02" y1="30.7504" x2="-41.4315" y2="126.361" gradientUnits="userSpaceOnUse">
<stop stop-color="#792EE5"/>
<stop offset="1" stop-color="#428FF4"/>
</linearGradient>
<clipPath id="clip0_402_94">
<rect width="86.6667" height="100" fill="white"/>
</clipPath>
</defs>
</svg>
