<svg width="351" height="101" viewBox="0 0 351 101" fill="none" xmlns="http://www.w3.org/2000/svg">
<g clip-path="url(#clip0_128_22)">
<path d="M41.5646 0.710874L1.76869 23.7878C1.17912 24.0837 0.88434 24.6754 0.294771 25.2671C0.0546859 25.8261 -0.0464782 26.4353 -1.51027e-05 27.0422V73.1961C0.0610451 73.8248 0.262568 74.4315 0.589556 74.9712C0.923145 75.6006 1.43637 76.1157 2.06348 76.4505L41.5646 99.5274C42.0749 99.9115 42.6955 100.119 43.3333 100.119C43.9711 100.119 44.5918 99.9115 45.102 99.5274L84.6031 76.4505C85.2303 76.1157 85.7435 75.6006 86.0771 74.9712C86.4041 74.4315 86.6056 73.8248 86.6666 73.1961V27.0718C86.6056 26.4431 86.4041 25.8364 86.0771 25.2967C85.7435 24.6673 85.2303 24.1522 84.6031 23.8174L45.102 0.740461C44.5643 0.412282 43.9597 0.210025 43.3333 0.148743C42.7093 0.200981 42.1049 0.393077 41.5646 0.710874Z" fill="url(#paint0_linear_128_22)"/>
<path d="M40.868 55.884L40.868 33.3066C40.868 31.9232 39.7465 30.8017 38.3631 30.8017C36.9796 30.8017 35.8581 31.9232 35.8581 33.3066L35.8581 55.884C35.8581 57.2675 36.9796 58.389 38.3631 58.389C39.7465 58.389 40.868 57.2675 40.868 55.884Z" fill="white"/>
<path d="M60.9046 60.8969L25.8413 60.8969C24.4562 60.8969 23.3333 62.0198 23.3333 63.4049C23.3333 64.79 24.4562 65.9128 25.8413 65.9128L60.9046 65.9128C62.2897 65.9128 63.4126 64.79 63.4126 63.4049C63.4126 62.0198 62.2897 60.8969 60.9046 60.8969Z" fill="white"/>
<path d="M60.9076 55.8841L60.9076 28.2908C60.9076 26.9073 59.7861 25.7858 58.4027 25.7858C57.0192 25.7858 55.8977 26.9073 55.8977 28.2908L55.8977 55.8841C55.8977 57.2675 57.0192 58.389 58.4027 58.389C59.7861 58.389 60.9076 57.2675 60.9076 55.8841Z" fill="white"/>
<path d="M30.8482 55.884L30.8482 48.3543C30.8482 46.9708 29.7267 45.8493 28.3433 45.8493C26.9598 45.8493 25.8383 46.9708 25.8383 48.3543L25.8383 55.8841C25.8383 57.2675 26.9598 58.389 28.3433 58.389C29.7267 58.389 30.8482 57.2675 30.8482 55.884Z" fill="white"/>
<path d="M45.8779 38.3225V55.8841C45.8779 57.2675 46.9994 58.389 48.3828 58.389C49.7663 58.389 50.8878 57.2675 50.8878 55.8841V38.3225C50.8878 36.9391 49.7663 35.8176 48.3828 35.8176C46.9994 35.8176 45.8779 36.9391 45.8779 38.3225Z" fill="white"/>
</g>
<path d="M106.567 39.9459V35.5283H129.777V39.9459H120.786V64.6192H115.559V39.9459H106.567ZM139.378 65.0453C137.247 65.0453 135.4 64.5766 133.838 63.6391C132.275 62.7016 131.063 61.39 130.201 59.7044C129.349 58.0188 128.923 56.0491 128.923 53.7953C128.923 51.5415 129.349 49.5671 130.201 47.872C131.063 46.1769 132.275 44.8606 133.838 43.9231C135.4 42.9856 137.247 42.5169 139.378 42.5169C141.508 42.5169 143.355 42.9856 144.917 43.9231C146.48 44.8606 147.687 46.1769 148.539 47.872C149.401 49.5671 149.832 51.5415 149.832 53.7953C149.832 56.0491 149.401 58.0188 148.539 59.7044C147.687 61.39 146.48 62.7016 144.917 63.6391C143.355 64.5766 141.508 65.0453 139.378 65.0453ZM139.406 60.926C140.561 60.926 141.527 60.6088 142.304 59.9743C143.08 59.3303 143.658 58.4686 144.037 57.3891C144.425 56.3095 144.619 55.1069 144.619 53.7811C144.619 52.4459 144.425 51.2385 144.037 50.1589C143.658 49.0699 143.08 48.2035 142.304 47.5595C141.527 46.9156 140.561 46.5936 139.406 46.5936C138.222 46.5936 137.237 46.9156 136.451 47.5595C135.675 48.2035 135.092 49.0699 134.704 50.1589C134.325 51.2385 134.136 52.4459 134.136 53.7811C134.136 55.1069 134.325 56.3095 134.704 57.3891C135.092 58.4686 135.675 59.3303 136.451 59.9743C137.237 60.6088 138.222 60.926 139.406 60.926ZM153.196 64.6192V42.801H158.182V46.4374H158.409C158.807 45.1779 159.489 44.2072 160.455 43.5254C161.43 42.8341 162.543 42.4885 163.793 42.4885C164.077 42.4885 164.394 42.5027 164.745 42.5311C165.105 42.55 165.403 42.5832 165.64 42.6305V47.3606C165.422 47.2849 165.076 47.2186 164.603 47.1618C164.139 47.0955 163.689 47.0624 163.253 47.0624C162.316 47.0624 161.473 47.266 160.725 47.6731C159.986 48.0709 159.404 48.6249 158.978 49.3351C158.552 50.0453 158.338 50.8644 158.338 51.7925V64.6192H153.196ZM176.674 65.0453C174.496 65.0453 172.626 64.5671 171.064 63.6106C169.511 62.6542 168.313 61.3332 167.47 59.6476C166.637 57.9525 166.22 56.0017 166.22 53.7953C166.22 51.5794 166.646 49.6239 167.498 47.9288C168.351 46.2243 169.553 44.8985 171.106 43.9516C172.669 42.9951 174.515 42.5169 176.646 42.5169C178.417 42.5169 179.984 42.8436 181.348 43.497C182.721 44.141 183.815 45.0548 184.629 46.2385C185.443 47.4127 185.907 48.7858 186.021 50.3578H181.106C180.907 49.3067 180.434 48.4307 179.686 47.73C178.947 47.0197 177.958 46.6646 176.717 46.6646C175.666 46.6646 174.743 46.9487 173.947 47.5169C173.152 48.0756 172.531 48.8805 172.086 49.9317C171.651 50.9828 171.433 52.2423 171.433 53.7101C171.433 55.1968 171.651 56.4752 172.086 57.5453C172.522 58.6059 173.133 59.425 173.919 60.0027C174.714 60.5709 175.647 60.855 176.717 60.855C177.475 60.855 178.152 60.7129 178.748 60.4288C179.354 60.1353 179.861 59.7139 180.268 59.1646C180.675 58.6154 180.955 57.9478 181.106 57.1618H186.021C185.898 58.7053 185.443 60.0737 184.657 61.2669C183.871 62.4506 182.801 63.3786 181.447 64.051C180.093 64.7139 178.502 65.0453 176.674 65.0453ZM194.385 51.8351V64.6192H189.243V35.5283H194.272V46.5084H194.527C195.039 45.2773 195.829 44.3067 196.9 43.5964C197.979 42.8767 199.352 42.5169 201.019 42.5169C202.534 42.5169 203.855 42.8341 204.982 43.4686C206.109 44.1031 206.98 45.0311 207.596 46.2527C208.221 47.4743 208.533 48.9658 208.533 50.7271V64.6192H203.391V51.5226C203.391 50.0548 203.012 48.9137 202.255 48.0993C201.507 47.2754 200.455 46.8635 199.101 46.8635C198.192 46.8635 197.378 47.0624 196.658 47.4601C195.948 47.8483 195.389 48.4118 194.982 49.1504C194.584 49.8891 194.385 50.7839 194.385 51.8351ZM213.002 35.5283H219.451L228.087 56.6078H228.428L237.064 35.5283H243.513V64.6192H238.456V44.6334H238.186L230.147 64.5339H226.368L218.329 44.5908H218.059V64.6192H213.002V35.5283ZM257.684 65.0453C255.496 65.0453 253.607 64.5908 252.016 63.6817C250.435 62.7631 249.218 61.4658 248.365 59.7896C247.513 58.104 247.087 56.1201 247.087 53.8379C247.087 51.5936 247.513 49.6239 248.365 47.9288C249.227 46.2243 250.43 44.8985 251.973 43.9516C253.517 42.9951 255.33 42.5169 257.414 42.5169C258.758 42.5169 260.027 42.7347 261.221 43.1703C262.423 43.5964 263.484 44.2593 264.402 45.1589C265.33 46.0586 266.06 47.2044 266.59 48.5964C267.12 49.979 267.385 51.6267 267.385 53.5396V55.1163H249.502V51.6504H262.456C262.447 50.6656 262.234 49.7896 261.817 49.0226C261.401 48.2461 260.818 47.6353 260.07 47.1902C259.331 46.7451 258.47 46.5226 257.485 46.5226C256.434 46.5226 255.51 46.7783 254.715 47.2896C253.919 47.7915 253.299 48.4544 252.854 49.2783C252.418 50.0927 252.196 50.9875 252.186 51.9629V54.9885C252.186 56.2574 252.418 57.3464 252.883 58.2555C253.347 59.1552 253.995 59.8464 254.829 60.3294C255.662 60.8029 256.637 61.0396 257.755 61.0396C258.503 61.0396 259.18 60.9355 259.786 60.7271C260.392 60.5093 260.918 60.1921 261.363 59.7754C261.808 59.3588 262.144 58.8427 262.371 58.2271L267.172 58.7669C266.869 60.0358 266.292 61.1438 265.439 62.0908C264.597 63.0283 263.517 63.7574 262.201 64.2783C260.884 64.7896 259.379 65.0453 257.684 65.0453ZM281.63 42.801V46.7783H269.088V42.801H281.63ZM272.184 37.5737H277.326V58.0567C277.326 58.748 277.431 59.2783 277.639 59.6476C277.857 60.0074 278.141 60.2536 278.491 60.3862C278.842 60.5188 279.23 60.5851 279.656 60.5851C279.978 60.5851 280.271 60.5614 280.537 60.5141C280.811 60.4667 281.02 60.4241 281.162 60.3862L282.028 64.4061C281.753 64.5008 281.36 64.605 280.849 64.7186C280.347 64.8322 279.732 64.8985 279.003 64.9175C277.715 64.9553 276.555 64.7612 275.522 64.3351C274.49 63.8995 273.671 63.2271 273.065 62.318C272.468 61.4089 272.175 60.2726 272.184 58.9089V37.5737ZM284.931 64.6192V42.801H289.917V46.4374H290.144C290.542 45.1779 291.223 44.2072 292.189 43.5254C293.165 42.8341 294.277 42.4885 295.527 42.4885C295.811 42.4885 296.129 42.5027 296.479 42.5311C296.839 42.55 297.137 42.5832 297.374 42.6305V47.3606C297.156 47.2849 296.811 47.2186 296.337 47.1618C295.873 47.0955 295.423 47.0624 294.988 47.0624C294.05 47.0624 293.207 47.266 292.459 47.6731C291.721 48.0709 291.138 48.6249 290.712 49.3351C290.286 50.0453 290.073 50.8644 290.073 51.7925V64.6192H284.931ZM299.79 64.6192V42.801H304.932V64.6192H299.79ZM302.375 39.7044C301.561 39.7044 300.86 39.4345 300.273 38.8947C299.686 38.3455 299.392 37.6874 299.392 36.9203C299.392 36.1438 299.686 35.4856 300.273 34.9459C300.86 34.3966 301.561 34.122 302.375 34.122C303.199 34.122 303.9 34.3966 304.478 34.9459C305.065 35.4856 305.358 36.1438 305.358 36.9203C305.358 37.6874 305.065 38.3455 304.478 38.8947C303.9 39.4345 303.199 39.7044 302.375 39.7044ZM318.737 65.0453C316.559 65.0453 314.689 64.5671 313.126 63.6106C311.573 62.6542 310.375 61.3332 309.532 59.6476C308.699 57.9525 308.282 56.0017 308.282 53.7953C308.282 51.5794 308.709 49.6239 309.561 47.9288C310.413 46.2243 311.616 44.8985 313.169 43.9516C314.731 42.9951 316.578 42.5169 318.709 42.5169C320.479 42.5169 322.047 42.8436 323.41 43.497C324.783 44.141 325.877 45.0548 326.691 46.2385C327.506 47.4127 327.97 48.7858 328.084 50.3578H323.169C322.97 49.3067 322.496 48.4307 321.748 47.73C321.01 47.0197 320.02 46.6646 318.78 46.6646C317.728 46.6646 316.805 46.9487 316.01 47.5169C315.214 48.0756 314.594 48.8805 314.149 49.9317C313.713 50.9828 313.495 52.2423 313.495 53.7101C313.495 55.1968 313.713 56.4752 314.149 57.5453C314.584 58.6059 315.195 59.425 315.981 60.0027C316.777 60.5709 317.709 60.855 318.78 60.855C319.537 60.855 320.214 60.7129 320.811 60.4288C321.417 60.1353 321.923 59.7139 322.331 59.1646C322.738 58.6154 323.017 57.9478 323.169 57.1618H328.084C327.96 58.7053 327.506 60.0737 326.72 61.2669C325.934 62.4506 324.864 63.3786 323.51 64.051C322.155 64.7139 320.565 65.0453 318.737 65.0453ZM348.55 48.568L343.863 49.0794C343.73 48.6059 343.498 48.1608 343.167 47.7442C342.845 47.3275 342.409 46.9913 341.86 46.7356C341.311 46.48 340.638 46.3521 339.843 46.3521C338.773 46.3521 337.873 46.5841 337.144 47.0481C336.424 47.5122 336.069 48.1135 336.079 48.8521C336.069 49.4866 336.301 50.0027 336.775 50.4004C337.258 50.7981 338.053 51.1249 339.161 51.3805L342.883 52.176C344.947 52.6211 346.481 53.3266 347.485 54.2925C348.498 55.2584 349.009 56.5226 349.019 58.0851C349.009 59.4582 348.607 60.6703 347.811 61.7214C347.025 62.7631 345.932 63.5775 344.53 64.1646C343.129 64.7517 341.519 65.0453 339.701 65.0453C337.03 65.0453 334.881 64.4866 333.252 63.3692C331.623 62.2423 330.652 60.675 330.34 58.6675L335.354 58.1845C335.581 59.1694 336.064 59.9127 336.803 60.4146C337.542 60.9165 338.503 61.1675 339.686 61.1675C340.908 61.1675 341.888 60.9165 342.627 60.4146C343.375 59.9127 343.749 59.2925 343.749 58.5538C343.749 57.9288 343.508 57.4127 343.025 57.0055C342.551 56.5983 341.812 56.2858 340.809 56.068L337.087 55.2868C334.994 54.8512 333.446 54.1173 332.442 53.0851C331.438 52.0434 330.941 50.7271 330.951 49.1362C330.941 47.7915 331.306 46.6267 332.044 45.6419C332.793 44.6476 333.829 43.8805 335.155 43.3408C336.49 42.7915 338.029 42.5169 339.772 42.5169C342.329 42.5169 344.341 43.0614 345.809 44.1504C347.286 45.2394 348.2 46.712 348.55 48.568Z" fill="#1C1C1C"/>
<defs>
<linearGradient id="paint0_linear_128_22" x1="86.6666" y1="0.14874" x2="-2.50836" y2="97.8395" gradientUnits="userSpaceOnUse">
<stop stop-color="#792EE5"/>
<stop offset="1" stop-color="#428FF4"/>
</linearGradient>
<clipPath id="clip0_128_22">
<rect width="86.6667" height="100" fill="white" transform="translate(0 0.119171)"/>
</clipPath>
</defs>
</svg>
