<svg width="202" height="42" viewBox="0 0 202 42" fill="none" xmlns="http://www.w3.org/2000/svg">
<path fill-rule="evenodd" clip-rule="evenodd" d="M0 10.5L17.9393 0L35.88 10.5V31.5L17.94 42L0 31.5V10.5ZM17 15V26H15L15 15H17ZM26 27H10V29H26V27ZM25 13V26H23V13H25ZM13 26V21H11V26H13ZM19 26V17H21V26H19Z" fill="#792EE5"/>
<path d="M62.144 17.288V14.72H47.48V17.288H53.432V32H56.192V17.288H62.144ZM67.0404 32.216C70.8084 32.216 73.3764 29.336 73.3764 26.024C73.3764 22.664 70.6884 19.832 67.0404 19.832C63.3924 19.832 60.7044 22.664 60.7044 26.024C60.7044 29.36 63.2724 32.216 67.0404 32.216ZM67.0404 29.744C65.0004 29.744 63.3924 28.04 63.3924 26.024C63.3924 23.912 65.0004 22.304 67.0404 22.304C69.0804 22.304 70.6884 23.912 70.6884 26.024C70.6884 28.04 69.0804 29.744 67.0404 29.744ZM78.5098 25.736C78.5098 23.816 79.5178 22.376 81.4138 22.376H82.8538V20.048H81.4858C79.9018 20.048 78.9178 20.888 78.5098 21.728V20.048H75.8698V32H78.5098V25.736ZM89.6034 32.216C91.4274 32.216 92.9874 31.568 94.1154 30.488L95.2674 28.208H92.4834C92.0274 29.144 91.1394 29.744 89.6274 29.744C87.6834 29.744 86.2914 28.064 86.2914 26C86.2914 23.96 87.6594 22.304 89.6994 22.304C91.0674 22.304 91.9794 22.952 92.4114 23.84H95.2914C94.5954 21.824 92.8914 19.832 89.6274 19.832C86.1954 19.832 83.5794 22.592 83.5794 26C83.5794 29.384 86.1474 32.216 89.6034 32.216ZM100.025 25.328C100.025 23.504 101.081 22.304 102.809 22.304C104.537 22.304 105.497 23.552 105.497 25.112V32H108.137V24.776C108.137 21.632 106.265 19.832 103.433 19.832C101.969 19.832 100.769 20.528 100.025 21.44V14.72H97.3854V32H100.025V25.328ZM114.303 18.776L119.031 32H122.319L127.047 18.776V32H129.711V14.72H125.919L120.687 29.312L115.503 14.72H111.639V32H114.303V18.776ZM143.417 30.272L144.473 28.208H141.689C141.137 29.192 140.369 29.888 138.713 29.888C136.817 29.888 135.137 28.544 134.945 26.72H144.569C144.761 22.904 142.601 19.832 138.593 19.832C135.017 19.832 132.353 22.592 132.353 25.976C132.353 29.36 134.897 32.216 138.713 32.216C140.729 32.216 142.193 31.496 143.417 30.272ZM138.545 22.112C140.345 22.112 141.569 23.24 141.905 24.704H135.113C135.473 23.312 136.457 22.112 138.545 22.112ZM153.407 32V29.744H152.351C151.271 29.744 150.503 29.096 150.503 27.8V22.328H153.791V20.048H150.503V16.04L148.079 16.928L147.551 20.048H145.943L145.487 22.328H147.863V28.088C147.863 30.68 149.639 32.048 151.943 32.048C152.543 32.048 153.071 32.024 153.407 32ZM158.877 25.736C158.877 23.816 159.885 22.376 161.781 22.376H163.221V20.048H161.853C160.269 20.048 159.285 20.888 158.877 21.728V20.048H156.237V32H158.877V25.736ZM165.284 17.36H167.924V14.72H165.284V17.36ZM165.284 32H167.924V20.048H165.284V32ZM176.439 32.216C178.263 32.216 179.823 31.568 180.951 30.488L182.103 28.208H179.319C178.863 29.144 177.975 29.744 176.463 29.744C174.519 29.744 173.127 28.064 173.127 26C173.127 23.96 174.495 22.304 176.535 22.304C177.903 22.304 178.815 22.952 179.247 23.84H182.127C181.431 21.824 179.727 19.832 176.463 19.832C173.031 19.832 170.415 22.592 170.415 26C170.415 29.384 172.983 32.216 176.439 32.216ZM183.544 28.208L184.384 30.248C185.176 31.256 186.688 32.216 188.896 32.216C191.92 32.216 193.792 30.632 193.792 28.448C193.792 26.744 192.808 25.472 190.024 24.992L187.984 24.632C186.64 24.392 186.256 24.032 186.256 23.432C186.256 22.64 187.048 22.088 188.488 22.088C189.856 22.088 190.84 22.736 191.176 23.84H193.768L192.808 21.704C191.992 20.768 190.768 19.832 188.536 19.832C185.848 19.832 183.808 21.392 183.808 23.528C183.808 25.352 184.912 26.552 187.552 27.032L189.376 27.368C190.888 27.656 191.296 28.064 191.296 28.664C191.296 29.408 190.528 29.96 189.16 29.96C187.6 29.96 186.568 29.384 186.136 28.208H183.544Z" fill="#FFFFFF"/>
</svg>
